<svg version="1.1" id="图层_1" xmlns="http://www.w3.org/2000/svg" xmlns:xlink="http://www.w3.org/1999/xlink" x="0px" y="0px"
	 viewBox="0 0 1024 1024" style="enable-background:new 0 0 1024 1024;" xml:space="preserve">
<style type="text/css">
	.st0{fill:#FFFFFF;}
</style>
<path class="st0" d="M910.6,248.85c63.03,0,114.12,51.09,114.12,114.12v548.5c-1.75,61.29-52.84,112.38-114.12,112.38H362.1
	c-63.03,0-114.12-51.1-114.12-114.12V362.97c0-63.03,51.09-114.12,114.12-114.12L910.6,248.85z M362.1,350.97
	c-3.2-0.07-6.29,1.17-8.55,3.44s-3.48,5.37-3.39,8.57v548.5c0,6.77,5.1,11.87,11.87,11.87H910.6c6.77,0,11.87-5.1,11.87-11.87
	v-548.5c0.07-3.18-1.15-6.25-3.39-8.5c-2.24-2.25-5.3-3.49-8.48-3.44H362.1L362.1,350.97z M661.9,0.15
	c63.03,0,114.12,51.09,114.12,114.12v54.44c0.27,13.64-5.03,26.8-14.67,36.45s-22.79,14.96-36.43,14.72
	c-13.62,0.23-26.75-5.08-36.38-14.71c-9.63-9.63-14.94-22.76-14.71-36.38v-54.51c0.08-3.19-1.16-6.27-3.41-8.53
	c-2.26-2.26-5.34-3.49-8.53-3.41H113.4c-3.18-0.08-6.25,1.15-8.5,3.39c-2.25,2.24-3.49,5.3-3.44,8.48v548.57
	c0,6.77,5.1,11.87,11.87,11.87h49.42c13.63-0.23,26.77,5.09,36.41,14.74c9.63,9.65,14.94,22.8,14.69,36.43
	c0,28.9-23.8,49.35-51.09,49.35H113.4c-63.03,0-114.12-51.1-114.12-114.12V114.27C-0.72,51.24,50.37,0.15,113.4,0.15L661.9,0.15z"/>
</svg>
