<?xml version="1.0" encoding="utf-8"?>
<!-- Generator: Adobe Illustrator 26.5.0, SVG Export Plug-In . SVG Version: 6.00 Build 0)  -->
<svg version="1.1" id="图层_1" xmlns="http://www.w3.org/2000/svg" xmlns:xlink="http://www.w3.org/1999/xlink" x="0px" y="0px"
	 viewBox="0 0 1024 1024" style="enable-background:new 0 0 1024 1024;" xml:space="preserve">
<style type="text/css">
	.st0{fill:#FFFFFF;}
</style>
<path class="st0" d="M512,0c282.77,0,512,229.23,512,512s-229.23,512-512,512S0,794.77,0,512S229.23,0,512,0z M346.58,299.32
	c-11.82-11.82-39.38-11.82-51.2,0c-11.82,11.82-11.82,39.38,0,51.2L460.8,512L295.38,677.42c-11.82,11.82-11.82,39.38,0,51.2
	s39.38,11.82,51.2,0L512,563.2l165.42,165.42c11.82,11.82,39.38,11.82,51.2,0c15.75-15.75,15.75-39.38,0-47.26L563.2,515.94
	l165.42-165.42c11.82-11.82,11.82-39.38,0-51.2c-11.82-11.82-39.38-11.82-51.2,0L512,464.74L346.58,299.32z"/>
</svg>
