<svg width="20" height="20" viewBox="0 0 20 20" fill="none" xmlns="http://www.w3.org/2000/svg">
    <path d="M14.054 12.5732C14.3041 12.3162 14.4445 11.9676 14.4445 11.6041C14.4445 11.2406 14.3041 10.892 14.054 10.635C13.804 10.378 13.4648 10.2336 13.1112 10.2336C12.7576 10.2336 12.4184 10.378 12.1684 10.635C11.9183 10.892 11.7779 11.2406 11.7779 11.6041C11.7779 11.9676 11.9183 12.3162 12.1684 12.5732C12.4184 12.8303 12.7576 12.9747 13.1112 12.9747C13.4648 12.9747 13.804 12.8303 14.054 12.5732Z"
          fill="#fff"/>
    <path fill-rule="evenodd" clip-rule="evenodd"
          d="M13.3893 2.08794L3.61156 4.95969C2.74222 5.21462 2 6.0808 2 7.03562V16.1726C2 16.6573 2.1873 17.1221 2.5207 17.4648C2.8541 17.8075 3.30628 18 3.77778 18H16.2222C16.6937 18 17.1459 17.8075 17.4793 17.4648C17.8127 17.1221 18 16.6573 18 16.1726V7.03562C18 6.55096 17.8127 6.08616 17.4793 5.74345C17.1459 5.40075 16.6937 5.20822 16.2222 5.20822V4.28447C16.2223 3.93088 16.1424 3.58211 15.989 3.26562C15.8356 2.94913 15.6129 2.67357 15.3382 2.46063C15.0636 2.2477 14.7446 2.10321 14.4064 2.03853C14.0683 1.97386 13.7201 1.99077 13.3893 2.08794ZM14.0814 3.83522C14.0138 3.82229 13.9443 3.82563 13.8782 3.84498L9.23556 5.20822H14.4444V4.28356C14.4443 4.21294 14.4283 4.14332 14.3976 4.08015C14.3669 4.01698 14.3223 3.96199 14.2675 3.91949C14.2126 3.87699 14.1489 3.84815 14.0814 3.83522ZM16.2222 7.03562H3.77778V16.1726H16.2222V7.03562Z"
          fill="#fff"/>
</svg>
