<svg xmlns="http://www.w3.org/2000/svg" style="display: none;">

  <symbol id="icon-angle-up" viewBox="0 0 1024 1024">
    <path d="M1024,707.58l-512-512l-512,512l120.83,120.83L512,435.2l391.17,393.22L1024,707.58z"/>
  </symbol>

  <symbol id="icon-clone" viewBox="0 0 1024 1024">
    <path d="M910.6,248.85c63.03,0,114.12,51.09,114.12,114.12v548.5c-1.75,61.29-52.84,112.38-114.12,112.38H362.1
	c-63.03,0-114.12-51.1-114.12-114.12V362.97c0-63.03,51.09-114.12,114.12-114.12L910.6,248.85z M362.1,350.97
	c-3.2-0.07-6.29,1.17-8.55,3.44s-3.48,5.37-3.39,8.57v548.5c0,6.77,5.1,11.87,11.87,11.87H910.6c6.77,0,11.87-5.1,11.87-11.87
	v-548.5c0.07-3.18-1.15-6.25-3.39-8.5c-2.24-2.25-5.3-3.49-8.48-3.44H362.1L362.1,350.97z M661.9,0.15
	c63.03,0,114.12,51.09,114.12,114.12v54.44c0.27,13.64-5.03,26.8-14.67,36.45s-22.79,14.96-36.43,14.72
	c-13.62,0.23-26.75-5.08-36.38-14.71c-9.63-9.63-14.94-22.76-14.71-36.38v-54.51c0.08-3.19-1.16-6.27-3.41-8.53
	c-2.26-2.26-5.34-3.49-8.53-3.41H113.4c-3.18-0.08-6.25,1.15-8.5,3.39c-2.25,2.24-3.49,5.3-3.44,8.48v548.57
	c0,6.77,5.1,11.87,11.87,11.87h49.42c13.63-0.23,26.77,5.09,36.41,14.74c9.63,9.65,14.94,22.8,14.69,36.43
	c0,28.9-23.8,49.35-51.09,49.35H113.4c-63.03,0-114.12-51.1-114.12-114.12V114.27C-0.72,51.24,50.37,0.15,113.4,0.15L661.9,0.15z"/>
  </symbol>

  <symbol id="icon-test" viewBox="0 0 1024 1024">
    <path fill="#382673" d="M512 512m-370.78857422 0a370.78857422 370.78857422 0 1 0 741.57714844 0 370.78857422 370.78857422 0 1 0-741.57714844 0Z"/>
    <path fill="#473080" d="M512 512m-308.99047852 0a308.99047852 308.99047852 0 1 0 617.98095704 0 308.99047852 308.99047852 0 1 0-617.98095704 0Z"/>
    <path fill="#FFFFFF" d="M783.91162109 691.21447754H240.08837891l43.25866699-43.25866699h457.3059082z"/>
    <path fill="#382673" d="M783.91162109 691.21447754H240.08837891l43.25866699-43.25866699h457.3059082z"/>
    <path fill="#FFFFFF" d="M240.08837891 691.21447754h543.82324218v43.25866699H240.08837891z"/>
    <path fill="#00A58C" d="M456.38171386 641.77600098L283.34704589 481.10095214l43.258667-30.89904784h129.77600098z"/>
    <path fill="#00C2A9" d="M283.34704589 481.10095214h173.03466798v191.57409669H283.34704589z"/>
    <path fill="#D44A90" d="M746.83276367 542.89904786L573.7980957 641.77600098V512h129.77600098z"/>
    <path fill="#F15A9E" d="M573.7980957 542.89904786h173.03466797v129.77600097H573.7980957z"/>
    <path fill="#FFDE39" d="M425.48266602 413.12304687h173.03466796v259.55200196H425.48266602z"/>
    <path fill="#FEC632" d="M598.51733398 413.12304687H425.48266602l24.71923828-37.07885742h123.5961914z"/>
    <path fill="#FFFFFF" d="M512 337.72937011l31.51702881 16.68548585c4.3258667 2.47192383 9.88769531-1.23596192 9.26971436-6.79779053l-6.17980958-35.22491455 25.33721924-24.71923828c3.70788575-3.70788575 1.85394287-9.88769531-3.70788574-10.50567627l-35.22491455-4.94384766-15.44952392-32.13500976c-2.47192383-4.94384766-8.6517334-4.94384766-11.12365724 0l-15.44952391 31.5170288-35.22491456 5.56182862c-4.94384766 0.61798096-7.41577148 6.79779052-3.70788574 10.50567627l25.33721924 24.71923828-6.17980957 35.22491455c-0.61798096 4.94384766 4.3258667 9.26971435 9.26971435 6.79779053l31.51702881-16.68548584zM532.39337158 596.66339112h-27.19116211v-53.14636231c0-6.17980958 0-12.35961914 0.61798096-17.92144776-1.85394287 1.85394287-3.70788575 4.3258667-6.17980957 6.17980958l-11.12365722 9.26971435-14.83154297-16.68548584 34.60693359-27.80914307h24.10125732v100.11291505z"/>
    <path fill="#0CAFE8" d="M240.08837891 764.75421143c67.97790528 72.92175293 164.38293458 119.27032471 271.91162109 119.27032471s203.93371583-46.34857177 271.91162109-119.27032471V734.47314453H240.08837891v30.2810669z"/>
  </symbol>

</svg>