<?xml version="1.0" standalone="no"?><!DOCTYPE svg PUBLIC "-//W3C//DTD SVG 1.1//EN" "http://www.w3.org/Graphics/SVG/1.1/DTD/svg11.dtd"><svg t="1721271592367" class="icon" viewBox="0 0 1024 1024" version="1.1" xmlns="http://www.w3.org/2000/svg" p-id="4456" xmlns:xlink="http://www.w3.org/1999/xlink" width="200" height="200"><path d="M832 298.666667H384c-35.349333 0-64 28.650667-64 64v469.333333c0 35.349333 28.650667 64 64 64h448c35.349333 0 64-28.650667 64-64V362.666667c0-35.349333-28.650667-64-64-64z m0 533.333333H384V362.666667h448v469.333333zM192 661.333333h64v64h-64c-35.349333 0-64-28.650667-64-64V192c0-35.349333 28.650667-64 64-64h405.333333c35.349333 0 64 28.650667 64 64v42.666667h-64v-42.666667H192v469.333333z m463.808-142.976L704.842667 469.333333l-49.024-49.024 22.624-22.624L727.466667 446.709333l49.024-49.024 22.624 22.624L750.090667 469.333333l49.024 49.024-22.624 22.624L727.466667 491.957333l-49.024 49.024-22.634667-22.624zM768 661.909333H448v-32h320v32z m0 83.2H448v-32h320v32z" p-id="4457" fill="#0a66c2"></path></svg>