<svg width="20" height="20" viewBox="0 0 20 20" fill="none" xmlns="http://www.w3.org/2000/svg">
<path d="M2 10C2 6.09826 5.03701 3 8.705 3C10.9505 3 12.9506 4.15339 14.1735 5.94876C14.4844 6.40521 15.1065 6.52318 15.563 6.21226C16.0194 5.90134 16.1374 5.27926 15.8265 4.82281C14.2588 2.52136 11.66 1 8.705 1C3.86228 1 0 5.06518 0 10C0 14.9348 3.86228 19 8.705 19C11.66 19 14.2588 17.4786 15.8265 15.1772C16.1374 14.7207 16.0194 14.0987 15.563 13.7877C15.1065 13.4768 14.4844 13.5948 14.1735 14.0512C12.9506 15.8466 10.9505 17 8.705 17C5.03701 17 2 13.9017 2 10ZM11.3636 7.27638H7.72727C7.48617 7.27638 7.25494 7.37216 7.08445 7.54264C6.91396 7.71313 6.81818 7.94436 6.81818 8.18547C6.81818 8.42657 6.91396 8.65781 7.08445 8.82829C7.25494 8.99878 7.48617 9.09456 7.72727 9.09456H9.54545C10.2688 9.09456 10.9625 9.3819 11.4739 9.89336C11.9854 10.4048 12.2727 11.0985 12.2727 11.8218C12.2727 12.5451 11.9854 13.2388 11.4739 13.7503C10.9625 14.2618 10.2688 14.5491 9.54545 14.5491V15.4582C9.54545 15.6993 9.44967 15.9305 9.27919 16.101C9.1087 16.2715 8.87747 16.3673 8.63636 16.3673C8.39526 16.3673 8.16403 16.2715 7.99354 16.101C7.82305 15.9305 7.72727 15.6993 7.72727 15.4582V14.5491H5.90909C5.66798 14.5491 5.43675 14.4533 5.26627 14.2828C5.09578 14.1124 5 13.8811 5 13.64C5 13.3989 5.09578 13.1677 5.26627 12.9972C5.43675 12.8267 5.66798 12.7309 5.90909 12.7309H9.54545C9.78656 12.7309 10.0178 12.6351 10.1883 12.4647C10.3588 12.2942 10.4545 12.0629 10.4545 11.8218C10.4545 11.5807 10.3588 11.3495 10.1883 11.179C10.0178 11.0085 9.78656 10.9127 9.54545 10.9127H7.72727C7.00395 10.9127 6.31026 10.6254 5.7988 10.1139C5.28734 9.60248 5 8.90879 5 8.18547C5 7.46215 5.28734 6.76846 5.7988 6.257C6.31026 5.74553 7.00395 5.4582 7.72727 5.4582V4.54911C7.72727 4.308 7.82305 4.07677 7.99354 3.90628C8.16403 3.73579 8.39526 3.64001 8.63636 3.64001C8.87747 3.64001 9.1087 3.73579 9.27919 3.90628C9.44967 4.07677 9.54545 4.308 9.54545 4.54911V5.4582H11.3636C11.6047 5.4582 11.836 5.55398 12.0065 5.72446C12.1769 5.89495 12.2727 6.12618 12.2727 6.36729C12.2727 6.60839 12.1769 6.83962 12.0065 7.01011C11.836 7.1806 11.6047 7.27638 11.3636 7.27638ZM19.92 10.3785C19.8724 10.5011 19.801 10.613 19.71 10.708L17.71 12.7047C17.617 12.7983 17.5064 12.8725 17.3846 12.9232C17.2627 12.9739 17.132 13 17 13C16.868 13 16.7373 12.9739 16.6154 12.9232C16.4936 12.8725 16.383 12.7983 16.29 12.7047C16.1963 12.6119 16.1219 12.5015 16.0711 12.3798C16.0203 12.2581 15.9942 12.1277 15.9942 11.9959C15.9942 11.8641 16.0203 11.7336 16.0711 11.6119C16.1219 11.4903 16.1963 11.3798 16.29 11.287L16.59 10.9975H14C13.7348 10.9975 13.4804 10.8923 13.2929 10.7051C13.1054 10.5179 13 10.2639 13 9.99915C13 9.73437 13.1054 9.48043 13.2929 9.2932C13.4804 9.10598 13.7348 9.00079 14 9.00079H16.59L16.29 8.71127C16.1017 8.52328 15.9959 8.2683 15.9959 8.00244C15.9959 7.73658 16.1017 7.4816 16.29 7.29361C16.4783 7.10561 16.7337 7 17 7C17.2663 7 17.5217 7.10561 17.71 7.29361L19.71 9.29032C19.801 9.38526 19.8724 9.49722 19.92 9.61977C20.02 9.86283 20.02 10.1355 19.92 10.3785Z" fill="#fff"/>
</svg>
