<svg width="20" height="20" viewBox="0 0 20 20" fill="none" xmlns="http://www.w3.org/2000/svg">
    <path d="M13.8197 1H12.3798L15.7396 8.9579V2.89474C15.7396 1.85263 14.8757 1 13.8197 1Z" fill="#3D3D3D"/>
    <path d="M18.8115 3.08421L17.5635 2.51579V11.1368L19.8674 5.54737C20.2514 4.6 19.7714 3.46316 18.8115 3.08421Z"
          fill="#3D3D3D"/>
    <path fill-rule="evenodd" clip-rule="evenodd"
          d="M10.7478 2.23158L15.5476 13.6C15.5956 13.6947 15.6196 13.8132 15.6436 13.9316C15.6676 14.05 15.6916 14.1684 15.7396 14.2632C15.7396 15.0211 15.3556 15.6842 14.5877 15.9684L7.48398 18.8105C7.19599 19 7.004 19 6.71601 19C5.94805 19 5.27608 18.6211 4.98809 17.8632L0.188298 6.49474C-0.291681 5.54737 0.188298 4.50526 1.14826 4.12632L8.25195 1.28421C8.31205 1.26444 8.36798 1.24466 8.42147 1.22575C8.62426 1.15405 8.79203 1.09474 9.01992 1.09474C9.78788 1.09474 10.4599 1.47368 10.7478 2.23158ZM8.60654 7.37918C8.29978 6.63141 7.33208 6.22683 6.53993 6.54333C5.74778 6.85983 5.33782 7.81484 5.64459 8.56262C6.03394 9.42376 6.82579 9.52672 6.95282 9.54323C6.53869 9.51089 6.03585 9.71179 6.03585 9.71179C5.17481 10.0558 4.73698 10.9428 5.08557 11.7926C5.43416 12.6423 6.36003 12.9449 7.22107 12.6009C7.22107 12.6009 7.73769 12.3945 8.28708 11.7794C8.28708 11.7794 8.66928 12.4179 8.29544 13.7541L10.3619 12.9284C9.15145 12.2252 8.9759 11.5042 8.9759 11.5042C9.80417 11.5688 10.3208 11.3624 10.3208 11.3624C11.1818 11.0184 11.6336 10.1654 11.285 9.31563C10.9364 8.46589 9.9966 8.12929 9.13557 8.47332C9.13557 8.47332 8.63272 8.67422 8.35803 8.98178C8.53753 8.75927 8.65491 8.49428 8.69851 8.21314C8.7421 7.93199 8.7104 7.64448 8.60654 7.37918Z"
          fill="#3D3D3D"/>
</svg>
