<svg xmlns="http://www.w3.org/2000/svg" viewBox="0 0 1024 1024" width="200" height="200">
    <path fill="#515151" d="M831.56161587 817.00920804c15.74140926 0 28.40058453 12.76925506 28.40058452 28.40058453s-12.76925506 28.40058453-28.40058452 28.40058453H653.01220458c-15.74140926 0-28.40058453-12.76925506-28.40058454-28.40058453s12.76925506-28.40058453 28.40058454-28.40058453h178.54941129zM493.50659611 141.00924835c51.18710002 0 99.29196608 19.9244411 135.39813557 56.14069035 36.21624926 36.21624926 56.14069034 84.32111531 56.14069035 135.39813555s-19.9244411 99.29196608-56.14069035 135.39813555c-7.59550517 7.59550517-15.74140926 14.53053161-24.43771228 20.69499958 43.59159486 15.4111699 83.77071638 40.06904174 118.00552952 72.87281767 6.71486689 6.49470732 13.20957419 13.20957419 19.37404215 20.14460065 10.34749979 11.77853699 9.24670193 29.72154195-2.53183504 40.17912152-11.77853699 10.34749979-29.72154195 9.24670193-40.17912153-2.53183505-5.06367011-5.8342286-10.45757957-11.33821785-16.07164862-16.73212731-51.07702025-48.98550432-118.22568909-75.95505165-189.11707062-75.95505167-150.58914589 0-273.21802639 122.5188007-273.21802637 273.21802638 0 5.50398924 0.22015957 11.11805827 0.55039892 16.62204753h337.50462081c15.74140926 0 28.40058453 12.76925506 28.40058453 28.40058454s-12.76925506 28.40058453-28.40058453 28.40058453H199.48349038c-2.31167549 0-4.51327117-0.22015957-6.71486687-0.77055851l2.8620744 0.1100798c-13.87005291 0-25.97882926-10.12734022-28.07034516-24.32763249-2.31167549-16.07164861-3.52255311-32.25337701-3.52255314-48.54518519 0-44.58231292 8.69630302-87.73358864 25.97882927-128.46310908 16.62204753-39.29848325 40.39928109-74.63409423 70.67122196-104.90603512s65.60755186-54.04917443 104.90603509-70.67122196c5.72414883-2.42175527 11.44829764-4.62335098 17.28252628-6.71486689-8.80638279-6.16446795-17.06236667-13.20957419-24.76795164-20.91515916-36.21624926-36.21624926-56.14069034-84.32111531-56.14069034-135.39813554s19.9244411-99.29196608 56.14069034-135.39813555c36.10616948-36.32632906 84.21103553-56.25077015 135.39813554-56.25077013z m337.17438146 590.79820608c15.74140926 0 28.40058453 12.76925506 28.40058453 28.40058455s-12.76925506 28.40058453-28.40058453 28.40058452H652.1315663c-15.74140926 0-28.40058453-12.76925506-28.40058453-28.40058452s12.76925506-28.40058453 28.40058453-28.40058455h178.54941127z m-0.88063827-88.06382799c15.74140926 0 28.40058453 12.76925506 28.40058453 28.40058453s-12.76925506 28.40058453-28.40058453 28.40058453H651.25092803c-15.74140926 0-28.40058453-12.76925506-28.40058453-28.40058453s12.76925506-28.40058453 28.40058453-28.40058453h178.54941126z m-336.29374319-445.82312925c-74.30385488 0-134.62757705 60.43380197-134.62757704 134.62757706s60.43380197 134.62757705 134.62757704 134.62757704 134.62757705-60.43380197 134.62757706-134.62757704-60.32372217-134.62757705-134.62757706-134.62757706z"/>
</svg>