<?xml version="1.0" standalone="no"?><!DOCTYPE svg PUBLIC "-//W3C//DTD SVG 1.1//EN"
        "http://www.w3.org/Graphics/SVG/1.1/DTD/svg11.dtd">
<svg viewBox="0 0 1148 1024" version="1.1" xmlns="http://www.w3.org/2000/svg"
      xmlns:xlink="http://www.w3.org/1999/xlink" width="224.21875" height="200">
    <path d="M125.924324 279.524324h211.718919s231.783784 39.091892 267.070271 265.340541c-318.962162 84.410811-408.562162-92.713514-443.156757-144.951351a352.518919 352.518919 0 0 1-34.594595-120.38919zM671.135135 345.945946s-22.486486-263.610811 270.52973-286.097297c41.167568-3.113514 176.432432 0 176.432432 0s32.172973 232.12973-242.162162 281.6c-262.572973 46.356757-204.8 4.497297-204.8 4.497297z"
          fill="#0a66c2" opacity=".5"></path>
    <path d="M879.740541 0c-176.778378 0-314.810811 116.237838-334.183784 287.481081v81.643243a361.167568 361.167568 0 0 0-285.05946-154.983783H0l6.572973 115.2C26.637838 498.854054 196.843243 622.702703 343.178378 622.702703h110.356757a28.713514 28.713514 0 0 0 0-57.427027h-114.162162c-103.783784 0-276.756757-116.92973-281.945946-288.172973h211.372973c138.378378 19.027027 269.145946 124.540541 269.145946 281.6v433.47027a31.827027 31.827027 0 0 0 63.654054 0V325.535135c-1.72973-167.091892 151.87027-266.724324 276.756757-268.454054h204.454054c0 155.675676-172.972973 282.637838-274.681081 281.6h-123.502703a30.097297 30.097297 0 0 0-20.410811 8.302703 28.367568 28.367568 0 0 0-8.302702 20.410811 26.983784 26.983784 0 0 0 8.302702 20.064864 28.713514 28.713514 0 0 0 20.410811 8.648649H795.675676a337.643243 337.643243 0 0 0 336.259459-300.281081l13.837838-95.827027z"
          fill="#0a66c2"></path>
</svg>
